<svg xmlns="http://www.w3.org/2000/svg" xmlns:xlink="http://www.w3.org/1999/xlink"><symbol viewBox="0 0 14 22" id="arrow-down" xmlns="http://www.w3.org/2000/svg"><path d="M6 17.79V.9a.9.9 0 0 1 1.8 0v16.89l4.46-4.52a.9.9 0 0 1 1.28 1.26L6.9 21.27.26 14.53a.89.89 0 0 1 0-1.27.89.89 0 0 1 1.27 0z"/></symbol><symbol viewBox="0 0 26 12" id="arrow-right" xmlns="http://www.w3.org/2000/svg"><path d="M22.13 7H0V5h22.13L19 2a1.13 1.13 0 0 1 0-1.66 1.21 1.21 0 0 1 1.68 0l5 4.84a1.13 1.13 0 0 1 0 1.64l-5 4.84a1.21 1.21 0 0 1-1.68 0A1.13 1.13 0 0 1 19 10z"/></symbol><symbol viewBox="0 0 257 300" id="bars" xmlns="http://www.w3.org/2000/svg"><path d="M257.143 225v21.429c0 5.859-4.855 10.714-10.714 10.714H10.715c-5.859 0-10.714-4.855-10.714-10.714V225c0-5.859 4.855-10.714 10.714-10.714h235.714c5.859 0 10.714 4.855 10.714 10.714zm0-85.714v21.429c0 5.859-4.855 10.714-10.714 10.714H10.715c-5.859 0-10.714-4.855-10.714-10.714v-21.429c0-5.859 4.855-10.714 10.714-10.714h235.714c5.859 0 10.714 4.855 10.714 10.714zm0-85.715V75c0 5.859-4.855 10.714-10.714 10.714H10.715C4.856 85.714.001 80.859.001 75V53.571c0-5.859 4.855-10.714 10.714-10.714h235.714c5.859 0 10.714 4.855 10.714 10.714z"/></symbol><symbol class="dsvg-inline--fa dfa-facebook-f dfa-w-9" viewBox="0 0 264 512" id="facebook-f-brands" xmlns="http://www.w3.org/2000/svg"><path fill="currentColor" d="M76.7 512V283H0v-91h76.7v-71.7C76.7 42.4 124.3 0 193.8 0c33.3 0 61.9 2.5 70.2 3.6V85h-48.2c-37.8 0-45.1 18-45.1 44.3V192H256l-11.7 91h-73.6v229"/></symbol><symbol viewBox="0 0 64 74" id="play" xmlns="http://www.w3.org/2000/svg"><path d="M4.85 0A5.33 5.33 0 0 0 0 5.39v63.22a5 5 0 0 0 0 .55 5.35 5.35 0 0 0 2.83 4.25 5.13 5.13 0 0 0 5-.14l26.75-15.8 26.74-15.8a5.43 5.43 0 0 0 0-9.33L34.61 16.53 7.86.73A5.22 5.22 0 0 0 4.85 0z"/></symbol><symbol viewBox="0 0 16 16" id="search" xmlns="http://www.w3.org/2000/svg"><path d="M15.86 15.18L12 11.3a6.81 6.81 0 1 0-.67.67l3.89 3.89a.47.47 0 0 0 .33.14.48.48 0 0 0 .34-.82zM1 6.82a5.87 5.87 0 1 1 5.87 5.87A5.88 5.88 0 0 1 1 6.82z"/></symbol><symbol class="gsvg-inline--fa gfa-smile-wink gfa-w-16" viewBox="0 0 496 512" id="smile-wink-regular" xmlns="http://www.w3.org/2000/svg"><path fill="currentColor" d="M248 8C111 8 0 119 0 256s111 248 248 248 248-111 248-248S385 8 248 8zm0 448c-110.3 0-200-89.7-200-200S137.7 56 248 56s200 89.7 200 200-89.7 200-200 200zm117.8-146.4c-10.2-8.5-25.3-7.1-33.8 3.1-20.8 25-51.5 39.4-84 39.4s-63.2-14.3-84-39.4c-8.5-10.2-23.7-11.5-33.8-3.1-10.2 8.5-11.5 23.6-3.1 33.8 30 36 74.1 56.6 120.9 56.6s90.9-20.6 120.9-56.6c8.5-10.2 7.1-25.3-3.1-33.8zM168 240c17.7 0 32-14.3 32-32s-14.3-32-32-32-32 14.3-32 32 14.3 32 32 32zm160-60c-25.7 0-55.9 16.9-59.9 42.1-1.7 11.2 11.5 18.2 19.8 10.8l9.5-8.5c14.8-13.2 46.2-13.2 61 0l9.5 8.5c8.5 7.4 21.6.3 19.8-10.8-3.8-25.2-34-42.1-59.7-42.1z"/></symbol></svg>